<?xml version="1.0" encoding="utf-8"?>
<!-- Generator: Adobe Illustrator 25.2.1, SVG Export Plug-In . SVG Version: 6.00 Build 0)  -->
<svg version="1.1" id="Layer_1" xmlns="http://www.w3.org/2000/svg" xmlns:xlink="http://www.w3.org/1999/xlink" x="0px" y="0px"
	 viewBox="0 0 512.8 433" style="enable-background:new 0 0 512.8 433;" xml:space="preserve">
<style type="text/css">
	.st0{fill:#08090D;}
	.st1{fill:#1B3724;}
	.st2{fill:#438951;}
	.st3{fill:#2D6235;}
	.st4{fill:none;stroke:#000000;stroke-miterlimit:10;}
</style>
<g id="XMLID_1_">
	<g>
		<path class="st0" d="M512.3,144.3c0.1,48.2-35.1,87.6-80.3,94.7v34.4h2c11.8,0,15.1,10.5,15.1,20.3c0,12.3,0,24.6-0.4,36.9
			c-0.3,9.7-0.9,19.5-2.8,29.1c-8.6,42.5-50,72.8-92.5,72.8c0,0-192.8,0-192.8,0c-9.3,0-18.5-1.3-27.4-4
			c-19.8-5.9-37.5-18.4-49.7-35.1c-8.9-12.2-13.6-25.2-16-39c-1.4-8-2-16.3-2.2-24.8c-0.4-13-0.4-26-0.3-38.9
			c0.1-8.9,5-17.2,15-17.2h1V238c-45.4-7.1-80.7-46.5-80.6-94.6c0-8.2,6.8-14.8,15-14.8h65.6v-16.2c0-61.9,49.8-111.8,111.3-111.8
			h128.4c61.6,0,111.3,50.1,111.3,111.8v17.2h65.3C505.5,129.5,512.3,136.1,512.3,144.3z M481.7,159.5h-48.6v48.6
			C448.9,204.4,474.4,190.6,481.7,159.5z M419.1,336.9v-33.4h-323v33.4c0,36.8,29.8,65.6,65.2,65.6h192.5
			C389.3,402.5,419.1,373.7,419.1,336.9z M402.1,273.5V111.9c0-45-36.4-81.4-81.3-81.4H192.4c-45,0-81.3,36.4-81.3,81.4v161.6h19
			v-17.1c2.4-62.3,91.4-62.7,94,0v17.1h66v-17.1c2.5-62.3,91.4-62.7,94,0v17.1H402.1z M354.1,273.5v-17.1c-0.9-22.8-33.1-22.7-34,0
			v17.1H354.1z M194.1,273.5v-17.1c-0.9-22.8-33.1-22.7-34,0v17.1H194.1z M81.1,208.1v-48.6H32.4C39.7,190.6,65.2,204.4,81.1,208.1z
			"/>
		<path class="st1" d="M433.1,159.5h48.6c-7.3,31.1-32.8,44.9-48.6,48.6V159.5z"/>
		<path class="st2" d="M419.1,303.5v33.4c0,36.8-29.8,65.6-65.2,65.6H161.3c-35.4,0-65.2-28.8-65.2-65.6v-33.4H419.1z"/>
		<path class="st3" d="M402.1,111.9v161.6h-18v-17.1c-2.6-62.7-91.5-62.3-94,0v17.1h-66v-17.1c-2.6-62.7-91.6-62.3-94,0v17.1h-19
			V111.9c0-44.9,36.3-81.4,81.3-81.4h128.4C365.6,30.5,402.1,66.8,402.1,111.9z M353.2,159.5c19.9-0.8,19.9-29.2,0-30H160.4
			c-19.9,0.8-19.9,29.2,0,30h17.7v1.1c0.8,19.9,29.2,19.9,30,0v-1.1h98v1.1c0.8,19.9,29.2,19.9,30,0v-1.1H353.2z"/>
		<path class="st0" d="M353.2,129.5c19.9,0.8,19.9,29.2,0,30h-17.1v1.1c-0.8,19.9-29.2,19.9-30,0v-1.1h-98v1.1
			c-0.8,19.9-29.2,19.9-30,0v-1.1h-17.7c-19.9-0.8-19.9-29.2,0-30H353.2z"/>
		<path class="st1" d="M81.1,159.5v48.6c-15.8-3.7-41.4-17.5-48.6-48.6H81.1z"/>
	</g>
	<g>
		<path class="st4" d="M160.4,159.5h17.7v1.1c0.8,19.9,29.2,19.9,30,0v-1.1h98v1.1c0.8,19.9,29.2,19.9,30,0v-1.1h17.1
			c19.9-0.8,19.9-29.2,0-30H160.4C140.5,130.3,140.5,158.7,160.4,159.5z"/>
		<path class="st4" d="M433.1,159.5h48.6c-7.3,31.1-32.8,44.9-48.6,48.6V159.5z"/>
		<path class="st4" d="M111.1,111.9c0-44.9,36.3-81.4,81.3-81.4h128.4c44.9,0,81.3,36.3,81.3,81.4v161.6h-18v-17.1
			c-2.6-62.7-91.5-62.3-94,0v17.1h-66v-17.1c-2.6-62.7-91.6-62.3-94,0v17.1h-19V111.9z"/>
		<path class="st4" d="M354.1,256.4v17.1h-34v-17.1C321,233.7,353.1,233.6,354.1,256.4z"/>
		<path class="st4" d="M194.1,256.4v17.1h-34v-17.1C161,233.7,193.1,233.6,194.1,256.4z"/>
		<path class="st4" d="M96.1,303.5h323v33.4c0,36.8-29.8,65.6-65.2,65.6H161.3c-35.4,0-65.2-28.8-65.2-65.6V303.5z"/>
		<path class="st4" d="M32.4,159.5h48.6v48.6C65.2,204.4,39.7,190.6,32.4,159.5z"/>
		<path class="st4" d="M67.6,354.4c2.4,13.8,7,26.9,16,39c12.2,16.7,29.9,29.1,49.7,35.1c8.9,2.7,18.1,4,27.4,4c0,0,192.8,0,192.8,0
			c42.5,0,83.9-30.3,92.5-72.8c1.9-9.6,2.5-19.3,2.8-29.1c0.4-12.3,0.4-24.6,0.4-36.9c0-9.8-3.3-20.3-15.1-20.3h-2v-34.4
			c45.2-7.1,80.4-46.5,80.3-94.7c0-8.2-6.8-14.8-15-14.8h-65.3v-17.2c0-61.7-49.7-111.8-111.3-111.8H192.3
			c-61.5,0-111.3,50-111.3,111.8v16.2H15.5c-8.2,0-15,6.6-15,14.8c-0.1,48.2,35.2,87.5,80.6,94.6v35.5h-1c-10,0-14.9,8.3-15,17.2
			c-0.1,13-0.1,26,0.3,38.9C65.6,338.2,66.2,346.4,67.6,354.4z"/>
	</g>
</g>
</svg>
